<mxfile host="drawio-plugin" modified="2022-01-17T10:39:33.251Z" agent="5.0 (Windows NT 6.2; Win64; x64) AppleWebKit/537.36 (KHTML, like Gecko) Chrome/89.0.4389.114 Safari/537.36" etag="X-uBvHrkLinKRqyUcLg8" version="15.5.4" type="embed" pages="8"><diagram id="23iRSUPoRavnBvh4doch" name="Accueil"><mxGraphModel dx="885" dy="395" grid="1" gridSize="10" guides="1" tooltips="1" connect="1" arrows="1" fold="1" page="1" pageScale="1" pageWidth="827" pageHeight="1169" math="0" shadow="0"><root><mxCell id="0"/><mxCell id="1" parent="0"/><mxCell id="2" value="" style="strokeWidth=1;shadow=0;dashed=0;align=center;html=1;shape=mxgraph.mockup.containers.browserWindow;rSize=0;strokeColor=#666666;strokeColor2=#008cff;strokeColor3=#c4c4c4;mainText=,;recursiveResize=0;" parent="1" vertex="1"><mxGeometry y="120" width="830" height="550" as="geometry"/></mxCell><mxCell id="3" value="Accueil" style="strokeWidth=1;shadow=0;dashed=0;align=center;html=1;shape=mxgraph.mockup.containers.anchor;fontSize=17;fontColor=#666666;align=left;" parent="2" vertex="1"><mxGeometry x="60" y="12" width="110" height="26" as="geometry"/></mxCell><mxCell id="4" value="https://www.draw.io" style="strokeWidth=1;shadow=0;dashed=0;align=center;html=1;shape=mxgraph.mockup.containers.anchor;rSize=0;fontSize=17;fontColor=#666666;align=left;" parent="2" vertex="1"><mxGeometry x="130" y="60" width="250" height="26" as="geometry"/></mxCell><mxCell id="5" value="" style="strokeWidth=1;shadow=0;dashed=0;align=center;html=1;shape=mxgraph.mockup.forms.rrect;rSize=0;strokeColor=#999999;fillColor=#ffffff;" parent="2" vertex="1"><mxGeometry x="185" y="160" width="460" height="330" as="geometry"/></mxCell><mxCell id="6" value="Connexion personnel" style="strokeWidth=1;shadow=0;dashed=0;align=center;html=1;shape=mxgraph.mockup.forms.anchor;fontSize=12;fontColor=#666666;align=left;resizeWidth=1;spacingLeft=0;" parent="5" vertex="1"><mxGeometry width="230" height="20" relative="1" as="geometry"><mxPoint x="10" y="10" as="offset"/></mxGeometry></mxCell><mxCell id="7" value="" style="shape=line;strokeColor=#ddeeff;strokeWidth=2;html=1;resizeWidth=1;" parent="5" vertex="1"><mxGeometry width="414" height="10" relative="1" as="geometry"><mxPoint x="10" y="30" as="offset"/></mxGeometry></mxCell><mxCell id="8" value="Identifiant" style="strokeWidth=1;shadow=0;dashed=0;align=center;html=1;shape=mxgraph.mockup.forms.anchor;fontSize=12;fontColor=#666666;align=left;resizeWidth=1;spacingLeft=0;" parent="5" vertex="1"><mxGeometry width="230" height="20" relative="1" as="geometry"><mxPoint x="10" y="40" as="offset"/></mxGeometry></mxCell><mxCell id="9" value="johndoe" style="strokeWidth=1;shadow=0;dashed=0;align=center;html=1;shape=mxgraph.mockup.forms.rrect;rSize=0;strokeColor=#999999;fontColor=#666666;align=left;spacingLeft=5;resizeWidth=1;" parent="5" vertex="1"><mxGeometry width="345" height="25" relative="1" as="geometry"><mxPoint x="10" y="60" as="offset"/></mxGeometry></mxCell><mxCell id="10" value="Mot de passe" style="strokeWidth=1;shadow=0;dashed=0;align=center;html=1;shape=mxgraph.mockup.forms.anchor;fontSize=12;fontColor=#666666;align=left;resizeWidth=1;spacingLeft=0;" parent="5" vertex="1"><mxGeometry width="230" height="20" relative="1" as="geometry"><mxPoint x="10" y="95" as="offset"/></mxGeometry></mxCell><mxCell id="11" value="********" style="strokeWidth=1;shadow=0;dashed=0;align=center;html=1;shape=mxgraph.mockup.forms.rrect;rSize=0;strokeColor=#999999;fontColor=#666666;align=left;spacingLeft=5;resizeWidth=1;" parent="5" vertex="1"><mxGeometry width="345" height="25" relative="1" as="geometry"><mxPoint x="10" y="115" as="offset"/></mxGeometry></mxCell><mxCell id="12" value="SIGN IN" style="strokeWidth=1;shadow=0;dashed=0;align=center;html=1;shape=mxgraph.mockup.forms.rrect;rSize=5;strokeColor=none;fontColor=#ffffff;fillColor=#66bbff;fontSize=16;fontStyle=1;" parent="5" vertex="1"><mxGeometry y="1" width="80" height="30" relative="1" as="geometry"><mxPoint x="20" y="-150" as="offset"/></mxGeometry></mxCell><mxCell id="13" value="Forgot Password?" style="strokeWidth=1;shadow=0;dashed=0;align=center;html=1;shape=mxgraph.mockup.forms.anchor;fontSize=12;fontColor=#9999ff;align=left;spacingLeft=0;fontStyle=4;resizeWidth=1;" parent="5" vertex="1"><mxGeometry y="1" width="345" height="20" relative="1" as="geometry"><mxPoint x="10" y="-110" as="offset"/></mxGeometry></mxCell><mxCell id="14" value="" style="shape=line;strokeColor=#ddeeff;strokeWidth=2;html=1;resizeWidth=1;" parent="5" vertex="1"><mxGeometry y="1" width="414" height="10" relative="1" as="geometry"><mxPoint x="10" y="-90" as="offset"/></mxGeometry></mxCell><mxCell id="15" value="New User" style="strokeWidth=1;shadow=0;dashed=0;align=center;html=1;shape=mxgraph.mockup.forms.anchor;fontSize=12;fontColor=#666666;align=left;spacingLeft=0;resizeWidth=1;" parent="5" vertex="1"><mxGeometry y="1" width="345" height="20" relative="1" as="geometry"><mxPoint x="10" y="-70" as="offset"/></mxGeometry></mxCell><mxCell id="16" value="Inscription" style="strokeWidth=1;shadow=0;dashed=0;align=center;html=1;shape=mxgraph.mockup.forms.rrect;rSize=5;strokeColor=none;fontColor=#ffffff;fillColor=#66bbff;fontSize=16;fontStyle=1;" parent="5" vertex="1"><mxGeometry y="1" width="80" height="30" relative="1" as="geometry"><mxPoint x="20" y="-50" as="offset"/></mxGeometry></mxCell></root></mxGraphModel></diagram><diagram id="w1JVWfdvNgA58QYvT9Tp" name="usager"><mxGraphModel dx="1735" dy="395" grid="1" gridSize="10" guides="1" tooltips="1" connect="1" arrows="1" fold="1" page="1" pageScale="1" pageWidth="850" pageHeight="1100" math="0" shadow="0"><root><mxCell id="FXogF5825aY5okPWwUbB-0"/><mxCell id="FXogF5825aY5okPWwUbB-1" parent="FXogF5825aY5okPWwUbB-0"/><mxCell id="FXogF5825aY5okPWwUbB-2" value="" style="strokeWidth=1;shadow=0;dashed=0;align=center;html=1;shape=mxgraph.mockup.containers.browserWindow;rSize=0;strokeColor=#666666;strokeColor2=#008cff;strokeColor3=#c4c4c4;mainText=,;recursiveResize=0;" parent="FXogF5825aY5okPWwUbB-1" vertex="1"><mxGeometry x="-740" y="40" width="850" height="550" as="geometry"/></mxCell><mxCell id="FXogF5825aY5okPWwUbB-3" value="Gestion usagé" style="strokeWidth=1;shadow=0;dashed=0;align=center;html=1;shape=mxgraph.mockup.containers.anchor;fontSize=17;fontColor=#666666;align=left;" parent="FXogF5825aY5okPWwUbB-2" vertex="1"><mxGeometry x="60" y="12" width="110" height="26" as="geometry"/></mxCell><mxCell id="FXogF5825aY5okPWwUbB-4" value="https://www.draw.io" style="strokeWidth=1;shadow=0;dashed=0;align=center;html=1;shape=mxgraph.mockup.containers.anchor;rSize=0;fontSize=17;fontColor=#666666;align=left;" parent="FXogF5825aY5okPWwUbB-2" vertex="1"><mxGeometry x="130" y="60" width="250" height="26" as="geometry"/></mxCell><mxCell id="h6m-qADMqnZgZN6OXdv6-3" value="Numéro carte" style="html=1;shadow=0;dashed=0;shape=mxgraph.bootstrap.rrect;rSize=5;strokeColor=#CED4DA;html=1;whiteSpace=wrap;fillColor=#FFFFFF;fontColor=#7D868C;align=left;spacingLeft=0;spacing=15;fontSize=14;" parent="FXogF5825aY5okPWwUbB-2" vertex="1"><mxGeometry x="30" y="368" width="800" height="40" as="geometry"/></mxCell><mxCell id="h6m-qADMqnZgZN6OXdv6-4" value="&lt;a href=&quot;data:page/id,OX6uhfGl7QoH1h6OVBTH&quot;&gt;Button&lt;/a&gt;" style="html=1;shadow=0;dashed=0;shape=mxgraph.bootstrap.rightButton;strokeColor=#6C757D;gradientColor=inherit;fontColor=inherit;fillColor=inherit;rSize=5;perimeter=none;whiteSpace=wrap;resizeHeight=1;fontSize=14;" parent="h6m-qADMqnZgZN6OXdv6-3" vertex="1"><mxGeometry x="1" width="70" height="40" relative="1" as="geometry"><mxPoint x="-70" as="offset"/></mxGeometry></mxCell><mxCell id="_HGGulNDujiczVlN-006-0" value="&lt;a href=&quot;data:page/id,KjxrHHM_2eM6QNUSWkjc&quot;&gt;Inscrire usager&lt;/a&gt;" style="html=1;shadow=0;dashed=0;shape=mxgraph.bootstrap.rrect;rSize=5;strokeColor=none;strokeWidth=1;fillColor=#33A64C;fontColor=#FFFFFF;whiteSpace=wrap;align=center;verticalAlign=middle;spacingLeft=0;fontStyle=0;fontSize=16;spacing=5;" parent="FXogF5825aY5okPWwUbB-2" vertex="1"><mxGeometry x="180" y="488" width="460" height="40" as="geometry"/></mxCell><mxCell id="h6m-qADMqnZgZN6OXdv6-0" value="" style="rounded=0;whiteSpace=wrap;html=1;" parent="FXogF5825aY5okPWwUbB-2" vertex="1"><mxGeometry x="290" y="168" width="220" height="110" as="geometry"/></mxCell><mxCell id="h6m-qADMqnZgZN6OXdv6-1" value="" style="endArrow=none;html=1;rounded=0;exitX=0;exitY=0.5;exitDx=0;exitDy=0;entryX=1;entryY=0.5;entryDx=0;entryDy=0;" parent="FXogF5825aY5okPWwUbB-2" source="h6m-qADMqnZgZN6OXdv6-0" target="h6m-qADMqnZgZN6OXdv6-0" edge="1"><mxGeometry width="50" height="50" relative="1" as="geometry"><mxPoint x="420" y="178" as="sourcePoint"/><mxPoint x="470" y="128" as="targetPoint"/></mxGeometry></mxCell><mxCell id="h6m-qADMqnZgZN6OXdv6-5" value="nom" style="html=1;shadow=0;dashed=0;shape=mxgraph.bootstrap.rrect;rSize=5;strokeColor=#CED4DA;html=1;whiteSpace=wrap;fillColor=#FFFFFF;fontColor=#7D868C;align=left;spacingLeft=0;spacing=15;fontSize=14;" parent="FXogF5825aY5okPWwUbB-2" vertex="1"><mxGeometry x="30" y="298" width="800" height="40" as="geometry"/></mxCell><mxCell id="h6m-qADMqnZgZN6OXdv6-6" value="&lt;a href=&quot;data:page/id,OX6uhfGl7QoH1h6OVBTH&quot;&gt;Button&lt;/a&gt;" style="html=1;shadow=0;dashed=0;shape=mxgraph.bootstrap.rightButton;strokeColor=#6C757D;gradientColor=inherit;fontColor=inherit;fillColor=inherit;rSize=5;perimeter=none;whiteSpace=wrap;resizeHeight=1;fontSize=14;" parent="h6m-qADMqnZgZN6OXdv6-5" vertex="1"><mxGeometry x="1" width="70" height="40" relative="1" as="geometry"><mxPoint x="-70" as="offset"/></mxGeometry></mxCell><mxCell id="h6m-qADMqnZgZN6OXdv6-2" value="scan QR CODE" style="text;html=1;strokeColor=none;fillColor=none;align=center;verticalAlign=middle;whiteSpace=wrap;rounded=0;" parent="FXogF5825aY5okPWwUbB-2" vertex="1"><mxGeometry x="330" y="190" width="140" height="20" as="geometry"/></mxCell></root></mxGraphModel></diagram><diagram id="OX6uhfGl7QoH1h6OVBTH" name="ficheusager"><mxGraphModel dx="1735" dy="395" grid="1" gridSize="10" guides="1" tooltips="1" connect="1" arrows="1" fold="1" page="1" pageScale="1" pageWidth="850" pageHeight="1100" math="0" shadow="0"><root><mxCell id="lnm83Jf3yszPMnmssqCx-0"/><mxCell id="lnm83Jf3yszPMnmssqCx-1" parent="lnm83Jf3yszPMnmssqCx-0"/><mxCell id="ghShu6xjzQOwhjPBkqk_-0" value="" style="strokeWidth=1;shadow=0;dashed=0;align=center;html=1;shape=mxgraph.mockup.containers.browserWindow;rSize=0;strokeColor=#666666;strokeColor2=#008cff;strokeColor3=#c4c4c4;mainText=,;recursiveResize=0;" parent="lnm83Jf3yszPMnmssqCx-1" vertex="1"><mxGeometry x="-810" y="50" width="850" height="550" as="geometry"/></mxCell><mxCell id="ghShu6xjzQOwhjPBkqk_-1" value="fiche usagé" style="strokeWidth=1;shadow=0;dashed=0;align=center;html=1;shape=mxgraph.mockup.containers.anchor;fontSize=17;fontColor=#666666;align=left;" parent="ghShu6xjzQOwhjPBkqk_-0" vertex="1"><mxGeometry x="60" y="12" width="110" height="26" as="geometry"/></mxCell><mxCell id="ghShu6xjzQOwhjPBkqk_-2" value="https://www.draw.io" style="strokeWidth=1;shadow=0;dashed=0;align=center;html=1;shape=mxgraph.mockup.containers.anchor;rSize=0;fontSize=17;fontColor=#666666;align=left;" parent="ghShu6xjzQOwhjPBkqk_-0" vertex="1"><mxGeometry x="130" y="60" width="250" height="26" as="geometry"/></mxCell><mxCell id="2oab3P20DJ9sjXhleJqS-1" value="&lt;b&gt;&lt;font style=&quot;font-size: 20px&quot;&gt;Caumartin François-regis&lt;/font&gt;&lt;/b&gt;&lt;br style=&quot;font-size: 14px&quot;&gt;&lt;br style=&quot;font-size: 14px&quot;&gt;Adresse : 1 rue de la rue&lt;br&gt;Téléphone : 0612458452&lt;br&gt;Email : blabla@gmail.com&lt;br&gt;Cotisation : &lt;font color=&quot;#45ff30&quot;&gt;Payé&lt;/font&gt;" style="html=1;shadow=0;dashed=0;shape=mxgraph.bootstrap.rrect;rSize=5;strokeColor=#DFDFDF;html=1;whiteSpace=wrap;fillColor=#ffffff;fontColor=#000000;verticalAlign=bottom;align=left;spacing=20;spacingBottom=50;fontSize=14;" parent="ghShu6xjzQOwhjPBkqk_-0" vertex="1"><mxGeometry x="170" y="150" width="450" height="350" as="geometry"/></mxCell><mxCell id="2oab3P20DJ9sjXhleJqS-2" value="Image cap" style="html=1;shadow=0;dashed=0;shape=mxgraph.bootstrap.topButton;rSize=5;perimeter=none;whiteSpace=wrap;fillColor=#868E96;strokeColor=#DFDFDF;fontColor=#DEE2E6;resizeWidth=1;fontSize=18;" parent="2oab3P20DJ9sjXhleJqS-1" vertex="1"><mxGeometry width="450" height="130" relative="1" as="geometry"/></mxCell><mxCell id="2oab3P20DJ9sjXhleJqS-4" value="" style="verticalLabelPosition=bottom;shadow=0;dashed=0;align=center;html=1;verticalAlign=top;strokeWidth=1;shape=mxgraph.mockup.containers.userMale;strokeColor=#666666;strokeColor2=#008cff;" parent="2oab3P20DJ9sjXhleJqS-1" vertex="1"><mxGeometry x="175" y="20" width="100" height="100" as="geometry"/></mxCell><mxCell id="kaU-ZSdpwHu6HJQJA0Ot-0" value="&lt;a href=&quot;data:page/id,0gfUGkicTyVOMrKClN29&quot;&gt;Liste des emprunt&lt;/a&gt;" style="html=1;shadow=0;dashed=0;shape=mxgraph.bootstrap.rrect;rSize=5;strokeColor=#0085FC;strokeWidth=1;fillColor=none;fontColor=#0085FC;whiteSpace=wrap;align=center;verticalAlign=middle;spacingLeft=0;fontStyle=0;fontSize=16;spacing=5;" parent="2oab3P20DJ9sjXhleJqS-1" vertex="1"><mxGeometry x="140" y="300" width="170" height="40" as="geometry"/></mxCell></root></mxGraphModel></diagram><diagram id="KjxrHHM_2eM6QNUSWkjc" name="inscription"><mxGraphModel dx="1735" dy="395" grid="1" gridSize="10" guides="1" tooltips="1" connect="1" arrows="1" fold="1" page="1" pageScale="1" pageWidth="850" pageHeight="1100" math="0" shadow="0"><root><mxCell id="lxC9ooLhPMSoBG4TC0MF-0"/><mxCell id="lxC9ooLhPMSoBG4TC0MF-1" parent="lxC9ooLhPMSoBG4TC0MF-0"/><mxCell id="eMYjor7YTMWKHNJYUMc8-0" value="" style="strokeWidth=1;shadow=0;dashed=0;align=center;html=1;shape=mxgraph.mockup.containers.browserWindow;rSize=0;strokeColor=#666666;strokeColor2=#008cff;strokeColor3=#c4c4c4;mainText=,;recursiveResize=0;" parent="lxC9ooLhPMSoBG4TC0MF-1" vertex="1"><mxGeometry x="-760" y="40" width="850" height="550" as="geometry"/></mxCell><mxCell id="eMYjor7YTMWKHNJYUMc8-1" value="inscription" style="strokeWidth=1;shadow=0;dashed=0;align=center;html=1;shape=mxgraph.mockup.containers.anchor;fontSize=17;fontColor=#666666;align=left;" parent="eMYjor7YTMWKHNJYUMc8-0" vertex="1"><mxGeometry x="60" y="12" width="110" height="26" as="geometry"/></mxCell><mxCell id="eMYjor7YTMWKHNJYUMc8-2" value="https://www.draw.io" style="strokeWidth=1;shadow=0;dashed=0;align=center;html=1;shape=mxgraph.mockup.containers.anchor;rSize=0;fontSize=17;fontColor=#666666;align=left;" parent="eMYjor7YTMWKHNJYUMc8-0" vertex="1"><mxGeometry x="130" y="60" width="250" height="26" as="geometry"/></mxCell><mxCell id="eMYjor7YTMWKHNJYUMc8-5" value="Inscrire usager" style="html=1;shadow=0;dashed=0;shape=mxgraph.bootstrap.rrect;rSize=5;strokeColor=none;strokeWidth=1;fillColor=#33A64C;fontColor=#FFFFFF;whiteSpace=wrap;align=center;verticalAlign=middle;spacingLeft=0;fontStyle=0;fontSize=16;spacing=5;" parent="eMYjor7YTMWKHNJYUMc8-0" vertex="1"><mxGeometry x="240" y="420" width="460" height="40" as="geometry"/></mxCell><mxCell id="gKuqe2a1UbL4kg9QJDFM-0" value="Nom" style="fillColor=none;strokeColor=none;align=left;fontSize=14;fontColor=#777777;" parent="eMYjor7YTMWKHNJYUMc8-0" vertex="1"><mxGeometry x="40" y="160" width="200" height="30" as="geometry"/></mxCell><mxCell id="gKuqe2a1UbL4kg9QJDFM-1" value="" style="html=1;shadow=0;dashed=0;shape=mxgraph.bootstrap.rrect;rSize=5;fillColor=none;strokeColor=#999999;align=left;spacing=15;fontSize=14;fontColor=#6C767D;" parent="eMYjor7YTMWKHNJYUMc8-0" vertex="1"><mxGeometry x="240" y="160" width="600" height="30" as="geometry"/></mxCell><mxCell id="gKuqe2a1UbL4kg9QJDFM-2" value="Prenom" style="fillColor=none;strokeColor=none;align=left;fontSize=14;fontColor=#777777;" parent="eMYjor7YTMWKHNJYUMc8-0" vertex="1"><mxGeometry x="40" y="200" width="200" height="30" as="geometry"/></mxCell><mxCell id="gKuqe2a1UbL4kg9QJDFM-3" value="" style="html=1;shadow=0;dashed=0;shape=mxgraph.bootstrap.rrect;rSize=5;fillColor=none;strokeColor=#999999;align=left;spacing=15;fontSize=14;fontColor=#6C767D;" parent="eMYjor7YTMWKHNJYUMc8-0" vertex="1"><mxGeometry x="240" y="200" width="600" height="30" as="geometry"/></mxCell><mxCell id="gKuqe2a1UbL4kg9QJDFM-11" value="Adresse" style="fillColor=none;strokeColor=none;align=left;fontSize=14;fontColor=#777777;" parent="lxC9ooLhPMSoBG4TC0MF-1" vertex="1"><mxGeometry x="-718" y="282" width="200" height="30" as="geometry"/></mxCell><mxCell id="gKuqe2a1UbL4kg9QJDFM-12" value="" style="html=1;shadow=0;dashed=0;shape=mxgraph.bootstrap.rrect;rSize=5;fillColor=none;strokeColor=#999999;align=left;spacing=15;fontSize=14;fontColor=#6C767D;" parent="lxC9ooLhPMSoBG4TC0MF-1" vertex="1"><mxGeometry x="-518" y="282" width="600" height="30" as="geometry"/></mxCell><mxCell id="gKuqe2a1UbL4kg9QJDFM-13" value="Téléphone" style="fillColor=none;strokeColor=none;align=left;fontSize=14;fontColor=#777777;" parent="lxC9ooLhPMSoBG4TC0MF-1" vertex="1"><mxGeometry x="-719" y="329" width="200" height="30" as="geometry"/></mxCell><mxCell id="gKuqe2a1UbL4kg9QJDFM-14" value="" style="html=1;shadow=0;dashed=0;shape=mxgraph.bootstrap.rrect;rSize=5;fillColor=none;strokeColor=#999999;align=left;spacing=15;fontSize=14;fontColor=#6C767D;" parent="lxC9ooLhPMSoBG4TC0MF-1" vertex="1"><mxGeometry x="-519" y="329" width="600" height="30" as="geometry"/></mxCell><mxCell id="gKuqe2a1UbL4kg9QJDFM-15" value="Email" style="fillColor=none;strokeColor=none;align=left;fontSize=14;fontColor=#777777;" parent="lxC9ooLhPMSoBG4TC0MF-1" vertex="1"><mxGeometry x="-719" y="372" width="200" height="30" as="geometry"/></mxCell><mxCell id="gKuqe2a1UbL4kg9QJDFM-16" value="" style="html=1;shadow=0;dashed=0;shape=mxgraph.bootstrap.rrect;rSize=5;fillColor=none;strokeColor=#999999;align=left;spacing=15;fontSize=14;fontColor=#6C767D;" parent="lxC9ooLhPMSoBG4TC0MF-1" vertex="1"><mxGeometry x="-519" y="372" width="600" height="30" as="geometry"/></mxCell></root></mxGraphModel></diagram><diagram id="0gfUGkicTyVOMrKClN29" name="liste emprunt"><mxGraphModel dx="2585" dy="395" grid="1" gridSize="10" guides="1" tooltips="1" connect="1" arrows="1" fold="1" page="1" pageScale="1" pageWidth="850" pageHeight="1100" math="0" shadow="0"><root><mxCell id="dlqEji8ataWkEKZirJb3-0"/><mxCell id="dlqEji8ataWkEKZirJb3-1" parent="dlqEji8ataWkEKZirJb3-0"/><mxCell id="dlqEji8ataWkEKZirJb3-2" value="" style="strokeWidth=1;shadow=0;dashed=0;align=center;html=1;shape=mxgraph.mockup.containers.browserWindow;rSize=0;strokeColor=#666666;strokeColor2=#008cff;strokeColor3=#c4c4c4;mainText=,;recursiveResize=0;" parent="dlqEji8ataWkEKZirJb3-1" vertex="1"><mxGeometry x="-860" y="20" width="850" height="550" as="geometry"/></mxCell><mxCell id="dlqEji8ataWkEKZirJb3-3" value="liste emprunt" style="strokeWidth=1;shadow=0;dashed=0;align=center;html=1;shape=mxgraph.mockup.containers.anchor;fontSize=17;fontColor=#666666;align=left;" parent="dlqEji8ataWkEKZirJb3-2" vertex="1"><mxGeometry x="60" y="12" width="110" height="26" as="geometry"/></mxCell><mxCell id="dlqEji8ataWkEKZirJb3-4" value="https://www.draw.io" style="strokeWidth=1;shadow=0;dashed=0;align=center;html=1;shape=mxgraph.mockup.containers.anchor;rSize=0;fontSize=17;fontColor=#666666;align=left;" parent="dlqEji8ataWkEKZirJb3-2" vertex="1"><mxGeometry x="130" y="60" width="250" height="26" as="geometry"/></mxCell><mxCell id="T4xxGBPOJEPPCbDHUaei-0" value="Liste des emprunt" style="shape=table;startSize=30;container=1;collapsible=0;childLayout=tableLayout;fixedRows=1;rowLines=0;fontStyle=1;align=center;pointerEvents=1;fontColor=#45FF30;" parent="dlqEji8ataWkEKZirJb3-2" vertex="1"><mxGeometry x="141" y="183" width="609" height="257" as="geometry"/></mxCell><mxCell id="T4xxGBPOJEPPCbDHUaei-1" value="" style="shape=partialRectangle;html=1;whiteSpace=wrap;collapsible=0;dropTarget=0;pointerEvents=1;fillColor=none;top=0;left=0;bottom=1;right=0;points=[[0,0.5],[1,0.5]];portConstraint=eastwest;fontColor=#45FF30;" parent="T4xxGBPOJEPPCbDHUaei-0" vertex="1"><mxGeometry y="30" width="609" height="30" as="geometry"/></mxCell><mxCell id="T4xxGBPOJEPPCbDHUaei-2" value="Titre" style="shape=partialRectangle;html=1;whiteSpace=wrap;connectable=0;fillColor=none;top=0;left=0;bottom=0;right=0;overflow=hidden;pointerEvents=1;fontColor=#45FF30;" parent="T4xxGBPOJEPPCbDHUaei-1" vertex="1"><mxGeometry width="400" height="30" as="geometry"><mxRectangle width="400" height="30" as="alternateBounds"/></mxGeometry></mxCell><mxCell id="T4xxGBPOJEPPCbDHUaei-3" value="Etat" style="shape=partialRectangle;html=1;whiteSpace=wrap;connectable=0;fillColor=none;top=0;left=0;bottom=0;right=0;align=left;spacingLeft=6;overflow=hidden;pointerEvents=1;fontColor=#45FF30;" parent="T4xxGBPOJEPPCbDHUaei-1" vertex="1"><mxGeometry x="400" width="209" height="30" as="geometry"><mxRectangle width="209" height="30" as="alternateBounds"/></mxGeometry></mxCell><mxCell id="T4xxGBPOJEPPCbDHUaei-4" value="" style="shape=partialRectangle;html=1;whiteSpace=wrap;collapsible=0;dropTarget=0;pointerEvents=1;fillColor=none;top=0;left=0;bottom=0;right=0;points=[[0,0.5],[1,0.5]];portConstraint=eastwest;fontColor=#45FF30;" parent="T4xxGBPOJEPPCbDHUaei-0" vertex="1"><mxGeometry y="60" width="609" height="30" as="geometry"/></mxCell><mxCell id="T4xxGBPOJEPPCbDHUaei-5" value="Livre1 BLALB" style="shape=partialRectangle;html=1;whiteSpace=wrap;connectable=0;fillColor=none;top=0;left=0;bottom=0;right=0;overflow=hidden;pointerEvents=1;fontColor=#45FF30;" parent="T4xxGBPOJEPPCbDHUaei-4" vertex="1"><mxGeometry width="400" height="30" as="geometry"><mxRectangle width="400" height="30" as="alternateBounds"/></mxGeometry></mxCell><mxCell id="T4xxGBPOJEPPCbDHUaei-6" value="Emprunté le 15/01/2022" style="shape=partialRectangle;html=1;whiteSpace=wrap;connectable=0;fillColor=none;top=0;left=0;bottom=0;right=0;align=left;spacingLeft=6;overflow=hidden;pointerEvents=1;fontColor=#45FF30;" parent="T4xxGBPOJEPPCbDHUaei-4" vertex="1"><mxGeometry x="400" width="209" height="30" as="geometry"><mxRectangle width="209" height="30" as="alternateBounds"/></mxGeometry></mxCell><mxCell id="T4xxGBPOJEPPCbDHUaei-7" value="" style="shape=partialRectangle;html=1;whiteSpace=wrap;collapsible=0;dropTarget=0;pointerEvents=1;fillColor=none;top=0;left=0;bottom=0;right=0;points=[[0,0.5],[1,0.5]];portConstraint=eastwest;fontColor=#45FF30;" parent="T4xxGBPOJEPPCbDHUaei-0" vertex="1"><mxGeometry y="90" width="609" height="30" as="geometry"/></mxCell><mxCell id="T4xxGBPOJEPPCbDHUaei-8" value="Livre2 blabla" style="shape=partialRectangle;html=1;whiteSpace=wrap;connectable=0;fillColor=none;top=0;left=0;bottom=0;right=0;overflow=hidden;pointerEvents=1;fontColor=#45FF30;" parent="T4xxGBPOJEPPCbDHUaei-7" vertex="1"><mxGeometry width="400" height="30" as="geometry"><mxRectangle width="400" height="30" as="alternateBounds"/></mxGeometry></mxCell><mxCell id="T4xxGBPOJEPPCbDHUaei-9" value="Rendu" style="shape=partialRectangle;html=1;whiteSpace=wrap;connectable=0;fillColor=none;top=0;left=0;bottom=0;right=0;align=left;spacingLeft=6;overflow=hidden;pointerEvents=1;fontColor=#45FF30;" parent="T4xxGBPOJEPPCbDHUaei-7" vertex="1"><mxGeometry x="400" width="209" height="30" as="geometry"><mxRectangle width="209" height="30" as="alternateBounds"/></mxGeometry></mxCell><mxCell id="QBoRf58XoX8tmUSzBev1-0" value="Ajouter un emprunt" style="html=1;shadow=0;dashed=0;shape=mxgraph.bootstrap.rrect;rSize=5;strokeColor=none;strokeWidth=1;fillColor=#33A64C;fontColor=#FFFFFF;whiteSpace=wrap;align=center;verticalAlign=middle;spacingLeft=0;fontStyle=0;fontSize=16;spacing=5;" parent="dlqEji8ataWkEKZirJb3-2" vertex="1"><mxGeometry x="569" y="473" width="181" height="40" as="geometry"/></mxCell></root></mxGraphModel></diagram><diagram id="fRvwG-QkmZGSm1hBkW84" name="ajoutemprunt"><mxGraphModel dx="1735" dy="395" grid="1" gridSize="10" guides="1" tooltips="1" connect="1" arrows="1" fold="1" page="1" pageScale="1" pageWidth="850" pageHeight="1100" math="0" shadow="0"><root><mxCell id="f6T1BwOD1uqiGZGF5Y5_-0"/><mxCell id="f6T1BwOD1uqiGZGF5Y5_-1" parent="f6T1BwOD1uqiGZGF5Y5_-0"/><mxCell id="BNr47WUss6pI84FSUfSS-0" value="" style="strokeWidth=1;shadow=0;dashed=0;align=center;html=1;shape=mxgraph.mockup.containers.browserWindow;rSize=0;strokeColor=#666666;strokeColor2=#008cff;strokeColor3=#c4c4c4;mainText=,;recursiveResize=0;" parent="f6T1BwOD1uqiGZGF5Y5_-1" vertex="1"><mxGeometry x="-720" y="30" width="850" height="660" as="geometry"/></mxCell><mxCell id="BNr47WUss6pI84FSUfSS-1" value="Ajout emprunt" style="strokeWidth=1;shadow=0;dashed=0;align=center;html=1;shape=mxgraph.mockup.containers.anchor;fontSize=17;fontColor=#666666;align=left;" parent="BNr47WUss6pI84FSUfSS-0" vertex="1"><mxGeometry x="60" y="12" width="110" height="26" as="geometry"/></mxCell><mxCell id="BNr47WUss6pI84FSUfSS-2" value="https://www.draw.io" style="strokeWidth=1;shadow=0;dashed=0;align=center;html=1;shape=mxgraph.mockup.containers.anchor;rSize=0;fontSize=17;fontColor=#666666;align=left;" parent="BNr47WUss6pI84FSUfSS-0" vertex="1"><mxGeometry x="130" y="60" width="250" height="26" as="geometry"/></mxCell><mxCell id="BNr47WUss6pI84FSUfSS-13" value="Ajouter un emprunt" style="html=1;shadow=0;dashed=0;shape=mxgraph.bootstrap.rrect;rSize=5;strokeColor=none;strokeWidth=1;fillColor=#33A64C;fontColor=#FFFFFF;whiteSpace=wrap;align=center;verticalAlign=middle;spacingLeft=0;fontStyle=0;fontSize=16;spacing=5;" parent="BNr47WUss6pI84FSUfSS-0" vertex="1"><mxGeometry x="338" y="574" width="181" height="40" as="geometry"/></mxCell><mxCell id="BNr47WUss6pI84FSUfSS-72" value="15/01/2022" style="rounded=1;arcSize=9;fillColor=none;align=left;spacingLeft=5;strokeColor=#DEE1E6;html=1;strokeWidth=2;fontColor=#596780;fontSize=12;sketch=1;hachureGap=4;pointerEvents=0;fontFamily=Architects Daughter;fontSource=https%3A%2F%2Ffonts.googleapis.com%2Fcss%3Ffamily%3DArchitects%2BDaughter;" parent="BNr47WUss6pI84FSUfSS-0" vertex="1"><mxGeometry x="170" y="300" width="650" height="33" as="geometry"/></mxCell><mxCell id="BNr47WUss6pI84FSUfSS-73" value="" style="shape=mxgraph.gmdl.calendar;fillColor=#5A6881;strokeColor=none;sketch=0;hachureGap=4;pointerEvents=0;fontFamily=Architects Daughter;fontSource=https%3A%2F%2Ffonts.googleapis.com%2Fcss%3Ffamily%3DArchitects%2BDaughter;fontSize=20;fontColor=#45FF30;" parent="BNr47WUss6pI84FSUfSS-72" vertex="1"><mxGeometry x="1" y="0.5" width="18" height="18" relative="1" as="geometry"><mxPoint x="-29" y="-9" as="offset"/></mxGeometry></mxCell><mxCell id="BNr47WUss6pI84FSUfSS-74" value="&lt;font color=&quot;#777777&quot; style=&quot;font-size: 14px&quot;&gt;Date d'emprunt&lt;/font&gt;" style="text;html=1;strokeColor=none;fillColor=none;align=center;verticalAlign=middle;whiteSpace=wrap;rounded=0;fontColor=#45FF30;" parent="BNr47WUss6pI84FSUfSS-0" vertex="1"><mxGeometry x="27" y="300" width="120" height="30" as="geometry"/></mxCell><mxCell id="BNr47WUss6pI84FSUfSS-75" value="100" style="html=1;shadow=0;dashed=0;shape=mxgraph.bootstrap.rrect;rSize=5;strokeColor=#CED4DA;html=1;whiteSpace=wrap;fillColor=#FFFFFF;fontColor=#7D868C;align=left;spacing=15;spacingLeft=40;fontSize=14;" parent="BNr47WUss6pI84FSUfSS-0" vertex="1"><mxGeometry x="170" y="461" width="647" height="40" as="geometry"/></mxCell><mxCell id="BNr47WUss6pI84FSUfSS-76" value="€" style="html=1;shadow=0;dashed=0;strokeColor=inherit;gradientColor=inherit;fontColor=inherit;fillColor=#E9ECEF;perimeter=none;whiteSpace=wrap;resizeHeight=1;fontSize=14;" parent="BNr47WUss6pI84FSUfSS-75" vertex="1"><mxGeometry x="1" width="40" height="40" relative="1" as="geometry"><mxPoint x="-40" as="offset"/></mxGeometry></mxCell><mxCell id="BNr47WUss6pI84FSUfSS-14" value="Usager" style="strokeColor=none;fillColor=none;fontColor=#777777;whiteSpace=wrap;align=left;verticalAlign=middle;fontStyle=0;fontSize=14;spacing=15;" parent="BNr47WUss6pI84FSUfSS-0" vertex="1"><mxGeometry x="27" y="200" width="150" height="40" as="geometry"/></mxCell><mxCell id="BNr47WUss6pI84FSUfSS-15" value="Caumartin François-regis" style="strokeColor=none;fillColor=none;fontColor=#777777;whiteSpace=wrap;align=left;verticalAlign=middle;fontStyle=0;fontSize=14;" parent="BNr47WUss6pI84FSUfSS-0" vertex="1"><mxGeometry x="201" y="200" width="189" height="40" as="geometry"/></mxCell><mxCell id="BNr47WUss6pI84FSUfSS-16" value="Côte document" style="strokeColor=none;fillColor=none;fontColor=#777777;whiteSpace=wrap;align=left;verticalAlign=middle;fontStyle=0;fontSize=14;spacing=15;" parent="BNr47WUss6pI84FSUfSS-0" vertex="1"><mxGeometry x="30" y="240" width="150" height="40" as="geometry"/></mxCell><mxCell id="BNr47WUss6pI84FSUfSS-17" value="" style="html=1;shadow=0;dashed=0;shape=mxgraph.bootstrap.rrect;rSize=5;strokeColor=#999999;fillColor=#ffffff;fontColor=#777777;whiteSpace=wrap;align=left;verticalAlign=middle;fontStyle=0;fontSize=14;spacing=15;" parent="BNr47WUss6pI84FSUfSS-0" vertex="1"><mxGeometry x="167" y="240" width="650" height="40" as="geometry"/></mxCell><mxCell id="BNr47WUss6pI84FSUfSS-102" value="&lt;font color=&quot;#777777&quot; style=&quot;font-size: 14px&quot;&gt;Type de document&lt;/font&gt;" style="text;html=1;strokeColor=none;fillColor=none;align=center;verticalAlign=middle;whiteSpace=wrap;rounded=0;fontColor=#45FF30;" parent="BNr47WUss6pI84FSUfSS-0" vertex="1"><mxGeometry x="30" y="370" width="120" height="30" as="geometry"/></mxCell><mxCell id="BNr47WUss6pI84FSUfSS-99" value="CD-ROM" style="html=1;shadow=0;dashed=0;shape=mxgraph.bootstrap.radioButton2;labelPosition=right;verticalLabelPosition=middle;align=left;verticalAlign=middle;gradientColor=#DEDEDE;fillColor=#EDEDED;checked=1;spacing=5;checkedFill=#0085FC;checkedStroke=#ffffff;sketch=0;fontSize=14;fontColor=#777777;" parent="BNr47WUss6pI84FSUfSS-0" vertex="1"><mxGeometry x="170" y="360" width="10" height="10" as="geometry"/></mxCell><mxCell id="BNr47WUss6pI84FSUfSS-101" value="Micro film" style="html=1;shadow=0;dashed=0;shape=mxgraph.bootstrap.radioButton2;labelPosition=right;verticalLabelPosition=middle;align=left;verticalAlign=middle;gradientColor=#DEDEDE;fillColor=#EDEDED;checked=0;spacing=5;fontColor=#6C767D;checkedFill=#0085FC;checkedStroke=#ffffff;sketch=0;fontSize=14;" parent="BNr47WUss6pI84FSUfSS-0" vertex="1"><mxGeometry x="170" y="406" width="10" height="10" as="geometry"/></mxCell><mxCell id="BNr47WUss6pI84FSUfSS-100" value="Livre" style="html=1;shadow=0;dashed=0;shape=mxgraph.bootstrap.radioButton2;labelPosition=right;verticalLabelPosition=middle;align=left;verticalAlign=middle;gradientColor=#DEDEDE;fillColor=#EDEDED;checked=0;spacing=5;checkedFill=#0085FC;checkedStroke=#ffffff;sketch=0;fontSize=14;fontColor=#777777;" parent="BNr47WUss6pI84FSUfSS-0" vertex="1"><mxGeometry x="170" y="380" width="10" height="10" as="geometry"/></mxCell><mxCell id="BNr47WUss6pI84FSUfSS-78" value="&lt;font color=&quot;#777777&quot; style=&quot;font-size: 14px&quot;&gt;Caution&lt;/font&gt;" style="text;html=1;strokeColor=none;fillColor=none;align=center;verticalAlign=middle;whiteSpace=wrap;rounded=0;fontColor=#45FF30;" parent="BNr47WUss6pI84FSUfSS-0" vertex="1"><mxGeometry x="40" y="466" width="120" height="30" as="geometry"/></mxCell></root></mxGraphModel></diagram><diagram id="mlHHW9gbJrZL9DC8OQVP" name="Ecran"><mxGraphModel dx="3760" dy="697" grid="1" gridSize="10" guides="1" tooltips="1" connect="1" arrows="1" fold="1" page="1" pageScale="1" pageWidth="1169" pageHeight="827" math="0" shadow="0"><root><mxCell id="BNKjnRDl1t-MDRnWOAxr-0"/><mxCell id="BNKjnRDl1t-MDRnWOAxr-1" parent="BNKjnRDl1t-MDRnWOAxr-0"/><mxCell id="Lw2hQx6UCXCTg2qY7nPX-0" value="" style="strokeWidth=1;shadow=0;dashed=0;align=center;html=1;shape=mxgraph.mockup.containers.browserWindow;rSize=0;strokeColor=#666666;strokeColor2=#008cff;strokeColor3=#c4c4c4;mainText=,;recursiveResize=0;" parent="BNKjnRDl1t-MDRnWOAxr-1" vertex="1"><mxGeometry x="-2260" y="30" width="850" height="660" as="geometry"/></mxCell><mxCell id="Lw2hQx6UCXCTg2qY7nPX-1" value="Ecran" style="strokeWidth=1;shadow=0;dashed=0;align=center;html=1;shape=mxgraph.mockup.containers.anchor;fontSize=17;fontColor=#666666;align=left;" parent="Lw2hQx6UCXCTg2qY7nPX-0" vertex="1"><mxGeometry x="60" y="12" width="140" height="26" as="geometry"/></mxCell><mxCell id="Lw2hQx6UCXCTg2qY7nPX-2" value="https://www.draw.io" style="strokeWidth=1;shadow=0;dashed=0;align=center;html=1;shape=mxgraph.mockup.containers.anchor;rSize=0;fontSize=17;fontColor=#666666;align=left;" parent="Lw2hQx6UCXCTg2qY7nPX-0" vertex="1"><mxGeometry x="130" y="60" width="250" height="26" as="geometry"/></mxCell><mxCell id="Lw2hQx6UCXCTg2qY7nPX-4" value="Disponibilité d'écran" style="shape=table;startSize=30;container=1;collapsible=0;childLayout=tableLayout;fixedRows=1;rowLines=0;fontStyle=1;align=center;pointerEvents=1;fontSize=14;fontColor=#777777;fillColor=#FFFFFF;" parent="Lw2hQx6UCXCTg2qY7nPX-0" vertex="1"><mxGeometry x="130" y="200" width="550" height="280" as="geometry"/></mxCell><mxCell id="Lw2hQx6UCXCTg2qY7nPX-5" value="" style="shape=partialRectangle;html=1;whiteSpace=wrap;collapsible=0;dropTarget=0;pointerEvents=1;fillColor=none;top=0;left=0;bottom=1;right=0;points=[[0,0.5],[1,0.5]];portConstraint=eastwest;fontSize=14;fontColor=#777777;" parent="Lw2hQx6UCXCTg2qY7nPX-4" vertex="1"><mxGeometry y="30" width="550" height="30" as="geometry"/></mxCell><mxCell id="Lw2hQx6UCXCTg2qY7nPX-6" value="Numéro" style="shape=partialRectangle;html=1;whiteSpace=wrap;connectable=0;fillColor=none;top=0;left=0;bottom=0;right=0;overflow=hidden;pointerEvents=1;fontSize=14;fontColor=#777777;" parent="Lw2hQx6UCXCTg2qY7nPX-5" vertex="1"><mxGeometry width="120" height="30" as="geometry"><mxRectangle width="120" height="30" as="alternateBounds"/></mxGeometry></mxCell><mxCell id="Lw2hQx6UCXCTg2qY7nPX-7" value="Etat" style="shape=partialRectangle;html=1;whiteSpace=wrap;connectable=0;fillColor=none;top=0;left=0;bottom=0;right=0;align=left;spacingLeft=6;overflow=hidden;pointerEvents=1;fontSize=14;fontColor=#777777;" parent="Lw2hQx6UCXCTg2qY7nPX-5" vertex="1"><mxGeometry x="120" width="430" height="30" as="geometry"><mxRectangle width="430" height="30" as="alternateBounds"/></mxGeometry></mxCell><mxCell id="Lw2hQx6UCXCTg2qY7nPX-8" value="" style="shape=partialRectangle;html=1;whiteSpace=wrap;collapsible=0;dropTarget=0;pointerEvents=1;fillColor=none;top=0;left=0;bottom=0;right=0;points=[[0,0.5],[1,0.5]];portConstraint=eastwest;fontSize=14;fontColor=#777777;" parent="Lw2hQx6UCXCTg2qY7nPX-4" vertex="1"><mxGeometry y="60" width="550" height="30" as="geometry"/></mxCell><mxCell id="Lw2hQx6UCXCTg2qY7nPX-9" value="1" style="shape=partialRectangle;html=1;whiteSpace=wrap;connectable=0;fillColor=none;top=0;left=0;bottom=0;right=0;overflow=hidden;pointerEvents=1;fontSize=14;fontColor=#777777;" parent="Lw2hQx6UCXCTg2qY7nPX-8" vertex="1"><mxGeometry width="120" height="30" as="geometry"><mxRectangle width="120" height="30" as="alternateBounds"/></mxGeometry></mxCell><mxCell id="Lw2hQx6UCXCTg2qY7nPX-10" value="&lt;font color=&quot;#45ff30&quot;&gt;Disponible&lt;/font&gt;" style="shape=partialRectangle;html=1;whiteSpace=wrap;connectable=0;fillColor=none;top=0;left=0;bottom=0;right=0;align=left;spacingLeft=6;overflow=hidden;pointerEvents=1;fontSize=14;fontColor=#777777;" parent="Lw2hQx6UCXCTg2qY7nPX-8" vertex="1"><mxGeometry x="120" width="430" height="30" as="geometry"><mxRectangle width="430" height="30" as="alternateBounds"/></mxGeometry></mxCell><mxCell id="Lw2hQx6UCXCTg2qY7nPX-11" value="" style="shape=partialRectangle;html=1;whiteSpace=wrap;collapsible=0;dropTarget=0;pointerEvents=1;fillColor=none;top=0;left=0;bottom=0;right=0;points=[[0,0.5],[1,0.5]];portConstraint=eastwest;fontSize=14;fontColor=#777777;" parent="Lw2hQx6UCXCTg2qY7nPX-4" vertex="1"><mxGeometry y="90" width="550" height="40" as="geometry"/></mxCell><mxCell id="Lw2hQx6UCXCTg2qY7nPX-12" value="2" style="shape=partialRectangle;html=1;whiteSpace=wrap;connectable=0;fillColor=none;top=0;left=0;bottom=0;right=0;overflow=hidden;pointerEvents=1;fontSize=14;fontColor=#777777;" parent="Lw2hQx6UCXCTg2qY7nPX-11" vertex="1"><mxGeometry width="120" height="40" as="geometry"><mxRectangle width="120" height="40" as="alternateBounds"/></mxGeometry></mxCell><mxCell id="Lw2hQx6UCXCTg2qY7nPX-13" value="&lt;font color=&quot;#ff3333&quot;&gt;Occupé&lt;/font&gt;" style="shape=partialRectangle;html=1;whiteSpace=wrap;connectable=0;fillColor=none;top=0;left=0;bottom=0;right=0;align=left;spacingLeft=6;overflow=hidden;pointerEvents=1;fontSize=14;fontColor=#777777;" parent="Lw2hQx6UCXCTg2qY7nPX-11" vertex="1"><mxGeometry x="120" width="430" height="40" as="geometry"><mxRectangle width="430" height="40" as="alternateBounds"/></mxGeometry></mxCell><mxCell id="Lw2hQx6UCXCTg2qY7nPX-14" value="3" style="shape=partialRectangle;html=1;whiteSpace=wrap;connectable=0;fillColor=none;top=0;left=0;bottom=0;right=0;overflow=hidden;pointerEvents=1;fontSize=14;fontColor=#777777;" parent="Lw2hQx6UCXCTg2qY7nPX-0" vertex="1"><mxGeometry x="132" y="320" width="123" height="40" as="geometry"><mxRectangle width="123" height="40" as="alternateBounds"/></mxGeometry></mxCell><mxCell id="Lw2hQx6UCXCTg2qY7nPX-15" value="4" style="shape=partialRectangle;html=1;whiteSpace=wrap;connectable=0;fillColor=none;top=0;left=0;bottom=0;right=0;overflow=hidden;pointerEvents=1;fontSize=14;fontColor=#777777;" parent="Lw2hQx6UCXCTg2qY7nPX-0" vertex="1"><mxGeometry x="132" y="353" width="123" height="40" as="geometry"><mxRectangle width="123" height="40" as="alternateBounds"/></mxGeometry></mxCell><mxCell id="Lw2hQx6UCXCTg2qY7nPX-16" value="5" style="shape=partialRectangle;html=1;whiteSpace=wrap;connectable=0;fillColor=none;top=0;left=0;bottom=0;right=0;overflow=hidden;pointerEvents=1;fontSize=14;fontColor=#777777;" parent="Lw2hQx6UCXCTg2qY7nPX-0" vertex="1"><mxGeometry x="132" y="381" width="123" height="40" as="geometry"><mxRectangle width="123" height="40" as="alternateBounds"/></mxGeometry></mxCell><mxCell id="Lw2hQx6UCXCTg2qY7nPX-17" value="6" style="shape=partialRectangle;html=1;whiteSpace=wrap;connectable=0;fillColor=none;top=0;left=0;bottom=0;right=0;overflow=hidden;pointerEvents=1;fontSize=14;fontColor=#777777;" parent="Lw2hQx6UCXCTg2qY7nPX-0" vertex="1"><mxGeometry x="132" y="416" width="123" height="40" as="geometry"><mxRectangle width="123" height="40" as="alternateBounds"/></mxGeometry></mxCell><mxCell id="Lw2hQx6UCXCTg2qY7nPX-18" value="&lt;font color=&quot;#45ff30&quot;&gt;Disponible&lt;/font&gt;" style="shape=partialRectangle;html=1;whiteSpace=wrap;connectable=0;fillColor=none;top=0;left=0;bottom=0;right=0;align=left;spacingLeft=6;overflow=hidden;pointerEvents=1;fontSize=14;fontColor=#777777;" parent="Lw2hQx6UCXCTg2qY7nPX-0" vertex="1"><mxGeometry x="254" y="324" width="427" height="30" as="geometry"><mxRectangle width="427" height="30" as="alternateBounds"/></mxGeometry></mxCell><mxCell id="Lw2hQx6UCXCTg2qY7nPX-19" value="&lt;font color=&quot;#45ff30&quot;&gt;Disponible&lt;/font&gt;" style="shape=partialRectangle;html=1;whiteSpace=wrap;connectable=0;fillColor=none;top=0;left=0;bottom=0;right=0;align=left;spacingLeft=6;overflow=hidden;pointerEvents=1;fontSize=14;fontColor=#777777;" parent="Lw2hQx6UCXCTg2qY7nPX-0" vertex="1"><mxGeometry x="254" y="356" width="427" height="30" as="geometry"><mxRectangle width="427" height="30" as="alternateBounds"/></mxGeometry></mxCell><mxCell id="Lw2hQx6UCXCTg2qY7nPX-20" value="&lt;font color=&quot;#ff3333&quot;&gt;Occupé&lt;/font&gt;" style="shape=partialRectangle;html=1;whiteSpace=wrap;connectable=0;fillColor=none;top=0;left=0;bottom=0;right=0;align=left;spacingLeft=6;overflow=hidden;pointerEvents=1;fontSize=14;fontColor=#777777;" parent="Lw2hQx6UCXCTg2qY7nPX-0" vertex="1"><mxGeometry x="255" y="382" width="427" height="40" as="geometry"><mxRectangle width="427" height="40" as="alternateBounds"/></mxGeometry></mxCell><mxCell id="Lw2hQx6UCXCTg2qY7nPX-21" value="&lt;font color=&quot;#ff3333&quot;&gt;Occupé&lt;/font&gt;" style="shape=partialRectangle;html=1;whiteSpace=wrap;connectable=0;fillColor=none;top=0;left=0;bottom=0;right=0;align=left;spacingLeft=6;overflow=hidden;pointerEvents=1;fontSize=14;fontColor=#777777;" parent="Lw2hQx6UCXCTg2qY7nPX-0" vertex="1"><mxGeometry x="253" y="418" width="427" height="40" as="geometry"><mxRectangle width="427" height="40" as="alternateBounds"/></mxGeometry></mxCell></root></mxGraphModel></diagram><diagram id="RCFn-dpr0I1L3yrwuapQ" name="misehorsservice"><mxGraphModel dx="2272" dy="697" grid="1" gridSize="10" guides="1" tooltips="1" connect="1" arrows="1" fold="1" page="1" pageScale="1" pageWidth="850" pageHeight="1100" math="0" shadow="0"><root><mxCell id="lViNH6ELN0raF1WTg4xp-0"/><mxCell id="lViNH6ELN0raF1WTg4xp-1" parent="lViNH6ELN0raF1WTg4xp-0"/><mxCell id="Vn18jhA7ZKi6i3RLXqQa-0" value="" style="strokeWidth=1;shadow=0;dashed=0;align=center;html=1;shape=mxgraph.mockup.containers.browserWindow;rSize=0;strokeColor=#666666;strokeColor2=#008cff;strokeColor3=#c4c4c4;mainText=,;recursiveResize=0;" parent="lViNH6ELN0raF1WTg4xp-1" vertex="1"><mxGeometry x="-770" y="10" width="850" height="660" as="geometry"/></mxCell><mxCell id="Vn18jhA7ZKi6i3RLXqQa-1" value="Mise hors service" style="strokeWidth=1;shadow=0;dashed=0;align=center;html=1;shape=mxgraph.mockup.containers.anchor;fontSize=17;fontColor=#666666;align=left;" parent="Vn18jhA7ZKi6i3RLXqQa-0" vertex="1"><mxGeometry x="30" y="12" width="30" height="26" as="geometry"/></mxCell><mxCell id="Vn18jhA7ZKi6i3RLXqQa-2" value="https://www.draw.io" style="strokeWidth=1;shadow=0;dashed=0;align=center;html=1;shape=mxgraph.mockup.containers.anchor;rSize=0;fontSize=17;fontColor=#666666;align=left;" parent="Vn18jhA7ZKi6i3RLXqQa-0" vertex="1"><mxGeometry x="130" y="60" width="250" height="26" as="geometry"/></mxCell><mxCell id="Vn18jhA7ZKi6i3RLXqQa-9" value="Mettre hors service" style="html=1;shadow=0;dashed=0;shape=mxgraph.bootstrap.rrect;rSize=5;strokeColor=none;strokeWidth=1;fillColor=#DB2843;fontColor=#FFFFFF;whiteSpace=wrap;align=left;verticalAlign=middle;spacingLeft=0;fontStyle=1;fontSize=14;spacing=5;" parent="Vn18jhA7ZKi6i3RLXqQa-0" vertex="1"><mxGeometry x="350" y="430" width="140" height="50" as="geometry"/></mxCell><mxCell id="Vn18jhA7ZKi6i3RLXqQa-16" value="Côte document" style="html=1;shadow=0;dashed=0;shape=mxgraph.bootstrap.rrect;rSize=5;strokeColor=#CED4DA;html=1;whiteSpace=wrap;fillColor=#FFFFFF;fontColor=#7D868C;align=left;spacingLeft=0;spacing=15;fontSize=14;" parent="Vn18jhA7ZKi6i3RLXqQa-0" vertex="1"><mxGeometry x="30" y="220" width="800" height="40" as="geometry"/></mxCell><mxCell id="SaYp_EOsB-3Tf24VyJuo-0" value="&lt;font style=&quot;font-size: 14px&quot;&gt;Type ressource&lt;/font&gt;" style="html=1;shadow=0;dashed=0;shape=mxgraph.bootstrap.rrect;rSize=5;strokeColor=#505050;strokeWidth=1;fillColor=#ffffff;fontColor=#777777;whiteSpace=wrap;align=left;verticalAlign=middle;fontStyle=0;fontSize=18;spacing=20;" parent="Vn18jhA7ZKi6i3RLXqQa-0" vertex="1"><mxGeometry x="30" y="308" width="800" height="44" as="geometry"/></mxCell><mxCell id="SaYp_EOsB-3Tf24VyJuo-1" value="" style="shape=triangle;direction=south;fillColor=#495057;strokeColor=none;perimeter=none;" parent="SaYp_EOsB-3Tf24VyJuo-0" vertex="1"><mxGeometry x="1" y="0.5" width="10" height="5" relative="1" as="geometry"><mxPoint x="-17" y="-2.5" as="offset"/></mxGeometry></mxCell></root></mxGraphModel></diagram></mxfile>